<svg width="800" height="400" xmlns="http://www.w3.org/2000/svg">
  <!-- 背景 -->
  <rect width="800" height="400" fill="#f5f5f5" rx="10" ry="10"/>
  
  <!-- WinForm 界面示意图 -->
  <rect x="100" y="50" width="600" height="300" fill="#ffffff" stroke="#cccccc" stroke-width="2" rx="8" ry="8"/>
  
  <!-- 标题栏 -->
  <rect x="100" y="50" width="600" height="30" fill="#3498db" rx="8 8 0 0" ry="8 8 0 0"/>
  <text x="300" y="70" font-family="Arial, sans-serif" font-size="16" fill="white" text-anchor="middle">WinForm 应用程序示例</text>
  
  <!-- 按钮 -->
  <rect x="150" y="120" width="100" height="30" fill="#2ecc71" rx="5" ry="5"/>
  <text x="200" y="140" font-family="Arial, sans-serif" font-size="14" fill="white" text-anchor="middle">点击按钮</text>
  
  <!-- 文本框 -->
  <rect x="300" y="120" width="200" height="30" fill="white" stroke="#cccccc" stroke-width="1" rx="3" ry="3"/>
  <text x="315" y="140" font-family="Arial, sans-serif" font-size="12" fill="#aaaaaa" text-anchor="start">输入文本...</text>
  
  <!-- 标签 -->
  <text x="150" y="90" font-family="Arial, sans-serif" font-size="14" fill="#333333" text-anchor="start">WinForm 控件示例:</text>
  
  <!-- 复选框 -->
  <rect x="150" y="180" width="16" height="16" fill="white" stroke="#cccccc" stroke-width="1" rx="2" ry="2"/>
  <text x="175" y="193" font-family="Arial, sans-serif" font-size="14" fill="#333333" text-anchor="start">复选框选项</text>
  
  <!-- 单选按钮 -->
  <circle cx="158" cy="230" r="8" fill="white" stroke="#cccccc" stroke-width="1"/>
  <text x="175" y="233" font-family="Arial, sans-serif" font-size="14" fill="#333333" text-anchor="start">单选按钮选项</text>
  
  <!-- 进度条 -->
  <rect x="300" y="180" width="200" height="20" fill="#ecf0f1" rx="10" ry="10"/>
  <rect x="300" y="180" width="120" height="20" fill="#e74c3c" rx="10" ry="10"/>
  <text x="400" y="193" font-family="Arial, sans-serif" font-size="12" fill="white" text-anchor="middle">60%</text>
  
  <!-- 分组框 -->
  <rect x="300" y="220" width="200" height="80" fill="white" stroke="#cccccc" stroke-width="1" rx="3" ry="3"/>
  <text x="310" y="233" font-family="Arial, sans-serif" font-size="12" fill="#3498db" text-anchor="start">分组框</text>
  <line x1="310" y1="235" x2="500" y2="235" stroke="#cccccc" stroke-width="1"/>
  
  <!-- 版权信息 -->
  <text x="400" y="380" font-family="Arial, sans-serif" font-size="10" fill="#999999" text-anchor="middle">WinForm 教程示例图</text>
</svg>