<svg width="800" height="500" xmlns="http://www.w3.org/2000/svg">
  <!-- 背景 -->
  <rect width="800" height="500" fill="#f8f9fa"/>
  
  <!-- 标题 -->
  <text x="400" y="40" font-family="Arial" font-size="20" fill="#0078d7" font-weight="bold" text-anchor="middle">WinForm 项目文件结构</text>
  
  <!-- 项目文件夹 -->
  <rect x="100" y="60" width="600" height="400" fill="#ffffff" stroke="#d3d3d3" stroke-width="2"/>
  <rect x="105" y="60" width="60" height="30" fill="#0078d7"/>
  <text x="135" y="82" font-family="Arial" font-size="14" fill="white" text-anchor="middle">项目名</text>
  <rect x="165" y="60" width="530" height="30" fill="#e9ecef"/>
  <text x="190" y="82" font-family="Arial" font-size="14" fill="#333" text-anchor="start">(WinFormApplication1)</text>
  
  <!-- Program.cs -->
  <rect x="120" y="100" width="250" height="40" fill="#f8f9fa" stroke="#d3d3d3" stroke-width="1"/>
  <polygon points="120,120 125,125 120,130" fill="#d3d3d3"/>
  <text x="145" y="125" font-family="Arial" font-size="14" fill="#0078d7" font-weight="bold" text-anchor="start">Program.cs</text>
  <text x="145" y="145" font-family="Arial" font-size="12" fill="#666" text-anchor="start">应用程序入口点</text>
  
  <!-- 主要表单组 -->
  <rect x="120" y="160" width="250" height="140" fill="#f0f2f5" stroke="#d3d3d3" stroke-width="1"/>
  <polygon points="120,180 125,185 120,190" fill="#d3d3d3"/>
  <text x="145" y="185" font-family="Arial" font-size="14" fill="#0078d7" font-weight="bold" text-anchor="start">Form1.cs</text>
  <text x="145" y="205" font-family="Arial" font-size="12" fill="#666" text-anchor="start">主窗体代码文件</text>
  
  <polygon points="120,220 125,225 120,230" fill="#d3d3d3"/>
  <text x="145" y="225" font-family="Arial" font-size="14" fill="#0078d7" font-weight="bold" text-anchor="start">Form1.Designer.cs</text>
  <text x="145" y="245" font-family="Arial" font-size="12" fill="#666" text-anchor="start">窗体设计器生成的代码</text>
  
  <polygon points="120,260 125,265 120,270" fill="#d3d3d3"/>
  <text x="145" y="265" font-family="Arial" font-size="14" fill="#0078d7" font-weight="bold" text-anchor="start">Form1.resx</text>
  <text x="145" y="285" font-family="Arial" font-size="12" fill="#666" text-anchor="start">窗体资源文件</text>
  
  <!-- 属性文件夹 -->
  <rect x="400" y="100" width="250" height="100" fill="#f0f2f5" stroke="#d3d3d3" stroke-width="1"/>
  <polygon points="400,120 405,125 400,130" fill="#d3d3d3"/>
  <text x="425" y="125" font-family="Arial" font-size="14" fill="#0078d7" font-weight="bold" text-anchor="start">Properties</text>
  
  <polygon points="420,145 425,150 420,155" fill="#d3d3d3"/>
  <text x="445" y="150" font-family="Arial" font-size="14" fill="#0078d7" font-weight="bold" text-anchor="start">AssemblyInfo.cs</text>
  <text x="445" y="170" font-family="Arial" font-size="12" fill="#666" text-anchor="start">程序集信息配置</text>
  
  <polygon points="420,185 425,190 420,195" fill="#d3d3d3"/>
  <text x="445" y="190" font-family="Arial" font-size="14" fill="#0078d7" font-weight="bold" text-anchor="start">Resources.resx</text>
  <text x="445" y="210" font-family="Arial" font-size="12" fill="#666" text-anchor="start">应用程序资源</text>
  
  <!-- 配置文件 -->
  <rect x="400" y="220" width="250" height="40" fill="#f8f9fa" stroke="#d3d3d3" stroke-width="1"/>
  <polygon points="400,240 405,245 400,250" fill="#d3d3d3"/>
  <text x="425" y="245" font-family="Arial" font-size="14" fill="#0078d7" font-weight="bold" text-anchor="start">App.config</text>
  <text x="425" y="265" font-family="Arial" font-size="12" fill="#666" text-anchor="start">应用程序配置文件</text>
  
  <!-- 引用文件夹 -->
  <rect x="120" y="320" width="250" height="40" fill="#f8f9fa" stroke="#d3d3d3" stroke-width="1"/>
  <polygon points="120,340 125,345 120,350" fill="#d3d3d3"/>
  <text x="145" y="345" font-family="Arial" font-size="14" fill="#0078d7" font-weight="bold" text-anchor="start">References</text>
  <text x="145" y="365" font-family="Arial" font-size="12" fill="#666" text-anchor="start">项目引用的程序集</text>
  
  <!-- 解决方案文件 -->
  <rect x="400" y="320" width="250" height="40" fill="#f8f9fa" stroke="#d3d3d3" stroke-width="1"/>
  <polygon points="400,340 405,345 400,350" fill="#d3d3d3"/>
  <text x="425" y="345" font-family="Arial" font-size="14" fill="#0078d7" font-weight="bold" text-anchor="start">WinFormApplication1.sln</text>
  <text x="425" y="365" font-family="Arial" font-size="12" fill="#666" text-anchor="start">解决方案文件</text>
  
  <!-- 连接线 -->
  <line x1="135" y1="90" x2="135" y2="100" stroke="#d3d3d3" stroke-width="2"/>
  <line x1="135" y1="140" x2="135" y2="160" stroke="#d3d3d3" stroke-width="2"/>
  <line x1="135" y1="300" x2="135" y2="320" stroke="#d3d3d3" stroke-width="2"/>
  <line x1="415" y1="130" x2="415" y2="145" stroke="#d3d3d3" stroke-width="2"/>
  <line x1="415" y1="210" x2="415" y2="220" stroke="#d3d3d3" stroke-width="2"/>
  <line x1="415" y1="260" x2="415" y2="320" stroke="#d3d3d3" stroke-width="2"/>
</svg>